<svg width="762" height="497" viewBox="0 0 662 397" fill="none" xmlns="http://www.w3.org/2000/svg">
<path d="M68.5664 396H59.6602V395.102L64.5332 389.574C65.3405 388.643 65.9004 387.875 66.2129 387.27C66.5254 386.664 66.6816 386.075 66.6816 385.502C66.6816 384.604 66.418 383.894 65.8906 383.373C65.3633 382.846 64.6374 382.582 63.7129 382.582C62.7559 382.582 61.9811 382.888 61.3887 383.5C60.8027 384.112 60.5098 384.906 60.5098 385.883H59.3477C59.3477 385.082 59.5267 384.353 59.8848 383.695C60.2493 383.038 60.7637 382.523 61.4277 382.152C62.0983 381.775 62.86 381.586 63.7129 381.586C65.015 381.586 66.0306 381.928 66.7598 382.611C67.4954 383.295 67.8633 384.226 67.8633 385.404C67.8633 386.068 67.6549 386.794 67.2383 387.582C66.8281 388.37 66.1022 389.353 65.0605 390.531L61.0957 395.014H68.5664V396ZM79.3281 390.072C79.3281 392.077 78.9603 393.601 78.2246 394.643C77.4889 395.678 76.4049 396.195 74.9727 396.195C73.5664 396.195 72.4889 395.688 71.7402 394.672C70.9915 393.65 70.6074 392.165 70.5879 390.219V387.67C70.5879 385.671 70.959 384.158 71.7012 383.129C72.4434 382.1 73.5273 381.586 74.9531 381.586C76.3594 381.586 77.4336 382.084 78.1758 383.08C78.918 384.07 79.3021 385.531 79.3281 387.465V390.072ZM78.1562 387.523C78.1562 385.896 77.8893 384.665 77.3555 383.832C76.8281 382.999 76.0273 382.582 74.9531 382.582C73.8984 382.582 73.1042 382.989 72.5703 383.803C72.0365 384.617 71.763 385.818 71.75 387.406V390.199C71.75 391.82 72.0234 393.061 72.5703 393.92C73.1237 394.779 73.9245 395.209 74.9727 395.209C76.0143 395.209 76.8021 394.789 77.3359 393.949C77.8763 393.109 78.1497 391.879 78.1562 390.258V387.523ZM81.9258 395.297C81.9258 395.069 81.9974 394.877 82.1406 394.721C82.2904 394.558 82.4954 394.477 82.7559 394.477C83.0163 394.477 83.2214 394.558 83.3711 394.721C83.5208 394.877 83.5957 395.069 83.5957 395.297C83.5957 395.525 83.5208 395.714 83.3711 395.863C83.2214 396.007 83.0163 396.078 82.7559 396.078C82.4954 396.078 82.2904 396.007 82.1406 395.863C81.9974 395.714 81.9258 395.525 81.9258 395.297ZM93.5469 381.781L98.791 394.33L104.055 381.781H105.656V396H104.455V389.809L104.553 383.461L99.2598 396H98.332L93.0586 383.51L93.1562 389.77V396H91.9551V381.781H93.5469ZM115.656 396C115.539 395.668 115.464 395.176 115.432 394.525C115.021 395.059 114.497 395.473 113.859 395.766C113.228 396.052 112.557 396.195 111.848 396.195C110.832 396.195 110.008 395.912 109.377 395.346C108.752 394.779 108.439 394.063 108.439 393.197C108.439 392.169 108.866 391.355 109.719 390.756C110.578 390.157 111.773 389.857 113.303 389.857H115.422V388.656C115.422 387.901 115.188 387.309 114.719 386.879C114.257 386.443 113.579 386.225 112.688 386.225C111.874 386.225 111.2 386.433 110.666 386.85C110.132 387.266 109.865 387.768 109.865 388.354L108.693 388.344C108.693 387.504 109.084 386.778 109.865 386.166C110.646 385.548 111.607 385.238 112.746 385.238C113.924 385.238 114.852 385.535 115.529 386.127C116.213 386.713 116.564 387.533 116.584 388.588V393.588C116.584 394.61 116.691 395.375 116.906 395.883V396H115.656ZM111.984 395.16C112.766 395.16 113.462 394.971 114.074 394.594C114.693 394.216 115.142 393.712 115.422 393.08V390.756H113.332C112.167 390.769 111.255 390.984 110.598 391.4C109.94 391.811 109.611 392.377 109.611 393.1C109.611 393.692 109.829 394.184 110.266 394.574C110.708 394.965 111.281 395.16 111.984 395.16ZM121.018 396H119.846V385.434H121.018V396ZM119.641 382.377C119.641 382.156 119.712 381.97 119.855 381.82C119.999 381.664 120.194 381.586 120.441 381.586C120.689 381.586 120.884 381.664 121.027 381.82C121.177 381.97 121.252 382.156 121.252 382.377C121.252 382.598 121.177 382.784 121.027 382.934C120.884 383.083 120.689 383.158 120.441 383.158C120.194 383.158 119.999 383.083 119.855 382.934C119.712 382.784 119.641 382.598 119.641 382.377Z" fill="#474747"/>
<path d="M175.15 396H166.244V395.102L171.117 389.574C171.924 388.643 172.484 387.875 172.797 387.27C173.109 386.664 173.266 386.075 173.266 385.502C173.266 384.604 173.002 383.894 172.475 383.373C171.947 382.846 171.221 382.582 170.297 382.582C169.34 382.582 168.565 382.888 167.973 383.5C167.387 384.112 167.094 384.906 167.094 385.883H165.932C165.932 385.082 166.111 384.353 166.469 383.695C166.833 383.038 167.348 382.523 168.012 382.152C168.682 381.775 169.444 381.586 170.297 381.586C171.599 381.586 172.615 381.928 173.344 382.611C174.079 383.295 174.447 384.226 174.447 385.404C174.447 386.068 174.239 386.794 173.822 387.582C173.412 388.37 172.686 389.353 171.645 390.531L167.68 395.014H175.15V396ZM182.777 396H181.605V383.188L177.738 384.623V383.529L182.582 381.732H182.777V396Z" fill="#474747"/>
<path d="M38.3652 367.072C38.3652 369.077 37.9974 370.601 37.2617 371.643C36.526 372.678 35.4421 373.195 34.0098 373.195C32.6035 373.195 31.526 372.688 30.7773 371.672C30.0286 370.65 29.6445 369.165 29.625 367.219V364.67C29.625 362.671 29.9961 361.158 30.7383 360.129C31.4805 359.1 32.5645 358.586 33.9902 358.586C35.3965 358.586 36.4707 359.084 37.2129 360.08C37.9551 361.07 38.3392 362.531 38.3652 364.465V367.072ZM37.1934 364.523C37.1934 362.896 36.9264 361.665 36.3926 360.832C35.8652 359.999 35.0645 359.582 33.9902 359.582C32.9355 359.582 32.1413 359.989 31.6074 360.803C31.0736 361.617 30.8001 362.818 30.7871 364.406V367.199C30.7871 368.82 31.0605 370.061 31.6074 370.92C32.1608 371.779 32.9616 372.209 34.0098 372.209C35.0514 372.209 35.8392 371.789 36.373 370.949C36.9134 370.109 37.1868 368.879 37.1934 367.258V364.523Z" fill="#474747"/>
<path d="M38.3652 367.072C38.3652 369.077 37.9974 370.601 37.2617 371.643C36.526 372.678 35.4421 373.195 34.0098 373.195C32.6035 373.195 31.526 372.688 30.7773 371.672C30.0286 370.65 29.6445 369.165 29.625 367.219V364.67C29.625 362.671 29.9961 361.158 30.7383 360.129C31.4805 359.1 32.5645 358.586 33.9902 358.586C35.3965 358.586 36.4707 359.084 37.2129 360.08C37.9551 361.07 38.3392 362.531 38.3652 364.465V367.072ZM37.1934 364.523C37.1934 362.896 36.9264 361.665 36.3926 360.832C35.8652 359.999 35.0645 359.582 33.9902 359.582C32.9355 359.582 32.1413 359.989 31.6074 360.803C31.0736 361.617 30.8001 362.818 30.7871 364.406V367.199C30.7871 368.82 31.0605 370.061 31.6074 370.92C32.1608 371.779 32.9616 372.209 34.0098 372.209C35.0514 372.209 35.8392 371.789 36.373 370.949C36.9134 370.109 37.1868 368.879 37.1934 367.258V364.523Z" fill="#474747"/>
<path d="M18.1797 272.715L18.873 265.781H25.9824V266.865H19.8789L19.3809 271.67C20.1426 271.149 21.0345 270.889 22.0566 270.889C23.3392 270.889 24.3613 271.305 25.123 272.139C25.8848 272.972 26.2656 274.082 26.2656 275.469C26.2656 276.966 25.8945 278.128 25.1523 278.955C24.4102 279.782 23.3652 280.195 22.0176 280.195C20.7806 280.195 19.778 279.85 19.0098 279.16C18.2415 278.47 17.8021 277.503 17.6914 276.26H18.8145C18.9251 277.23 19.2539 277.965 19.8008 278.467C20.3477 278.962 21.0866 279.209 22.0176 279.209C23.0332 279.209 23.7982 278.887 24.3125 278.242C24.8333 277.598 25.0938 276.68 25.0938 275.488C25.0938 274.447 24.804 273.597 24.2246 272.939C23.6452 272.282 22.8542 271.953 21.8516 271.953C21.2982 271.953 20.8164 272.025 20.4062 272.168C19.9961 272.305 19.5632 272.575 19.1074 272.979L18.1797 272.715ZM31.1777 274.678L29.8398 275.967V280H28.668V265H29.8398V274.6L30.9434 273.408L34.9863 269.434H36.4609L31.9785 273.887L36.8516 280H35.4551L31.1777 274.678Z" fill="#474747"/>
<path d="M18.1797 272.715L18.873 265.781H25.9824V266.865H19.8789L19.3809 271.67C20.1426 271.149 21.0345 270.889 22.0566 270.889C23.3392 270.889 24.3613 271.305 25.123 272.139C25.8848 272.972 26.2656 274.082 26.2656 275.469C26.2656 276.966 25.8945 278.128 25.1523 278.955C24.4102 279.782 23.3652 280.195 22.0176 280.195C20.7806 280.195 19.778 279.85 19.0098 279.16C18.2415 278.47 17.8021 277.503 17.6914 276.26H18.8145C18.9251 277.23 19.2539 277.965 19.8008 278.467C20.3477 278.962 21.0866 279.209 22.0176 279.209C23.0332 279.209 23.7982 278.887 24.3125 278.242C24.8333 277.598 25.0938 276.68 25.0938 275.488C25.0938 274.447 24.804 273.597 24.2246 272.939C23.6452 272.282 22.8542 271.953 21.8516 271.953C21.2982 271.953 20.8164 272.025 20.4062 272.168C19.9961 272.305 19.5632 272.575 19.1074 272.979L18.1797 272.715ZM31.1777 274.678L29.8398 275.967V280H28.668V265H29.8398V274.6L30.9434 273.408L34.9863 269.434H36.4609L31.9785 273.887L36.8516 280H35.4551L31.1777 274.678Z" fill="#474747"/>
<path d="M11.2812 196H10.1094V183.188L6.24219 184.623V183.529L11.0859 181.732H11.2812V196ZM25.5098 190.072C25.5098 192.077 25.1419 193.601 24.4062 194.643C23.6706 195.678 22.5866 196.195 21.1543 196.195C19.748 196.195 18.6706 195.688 17.9219 194.672C17.1732 193.65 16.7891 192.165 16.7695 190.219V187.67C16.7695 185.671 17.1406 184.158 17.8828 183.129C18.625 182.1 19.709 181.586 21.1348 181.586C22.541 181.586 23.6152 182.084 24.3574 183.08C25.0996 184.07 25.4837 185.531 25.5098 187.465V190.072ZM24.3379 187.523C24.3379 185.896 24.071 184.665 23.5371 183.832C23.0098 182.999 22.209 182.582 21.1348 182.582C20.0801 182.582 19.2858 182.989 18.752 183.803C18.2181 184.617 17.9447 185.818 17.9316 187.406V190.199C17.9316 191.82 18.2051 193.061 18.752 193.92C19.3053 194.779 20.1061 195.209 21.1543 195.209C22.196 195.209 22.9837 194.789 23.5176 193.949C24.0579 193.109 24.3314 191.879 24.3379 190.258V187.523ZM30.7246 190.678L29.3867 191.967V196H28.2148V181H29.3867V190.6L30.4902 189.408L34.5332 185.434H36.0078L31.5254 189.887L36.3984 196H35.002L30.7246 190.678Z" fill="#474747"/>
<path d="M11.2812 196H10.1094V183.188L6.24219 184.623V183.529L11.0859 181.732H11.2812V196ZM25.5098 190.072C25.5098 192.077 25.1419 193.601 24.4062 194.643C23.6706 195.678 22.5866 196.195 21.1543 196.195C19.748 196.195 18.6706 195.688 17.9219 194.672C17.1732 193.65 16.7891 192.165 16.7695 190.219V187.67C16.7695 185.671 17.1406 184.158 17.8828 183.129C18.625 182.1 19.709 181.586 21.1348 181.586C22.541 181.586 23.6152 182.084 24.3574 183.08C25.0996 184.07 25.4837 185.531 25.5098 187.465V190.072ZM24.3379 187.523C24.3379 185.896 24.071 184.665 23.5371 183.832C23.0098 182.999 22.209 182.582 21.1348 182.582C20.0801 182.582 19.2858 182.989 18.752 183.803C18.2181 184.617 17.9447 185.818 17.9316 187.406V190.199C17.9316 191.82 18.2051 193.061 18.752 193.92C19.3053 194.779 20.1061 195.209 21.1543 195.209C22.196 195.209 22.9837 194.789 23.5176 193.949C24.0579 193.109 24.3314 191.879 24.3379 190.258V187.523ZM30.7246 190.678L29.3867 191.967V196H28.2148V181H29.3867V190.6L30.4902 189.408L34.5332 185.434H36.0078L31.5254 189.887L36.3984 196H35.002L30.7246 190.678Z" fill="#474747"/>
<path d="M11.2812 83H10.1094V70.1875L6.24219 71.623V70.5293L11.0859 68.7324H11.2812V83ZM17.7266 75.7148L18.4199 68.7812H25.5293V69.8652H19.4258L18.9277 74.6699C19.6895 74.1491 20.5814 73.8887 21.6035 73.8887C22.8861 73.8887 23.9082 74.3053 24.6699 75.1387C25.4316 75.972 25.8125 77.082 25.8125 78.4688C25.8125 79.9661 25.4414 81.1283 24.6992 81.9551C23.957 82.7819 22.9121 83.1953 21.5645 83.1953C20.3275 83.1953 19.3249 82.8503 18.5566 82.1602C17.7884 81.4701 17.349 80.5033 17.2383 79.2598H18.3613C18.472 80.2298 18.8008 80.9655 19.3477 81.4668C19.8945 81.9616 20.6335 82.209 21.5645 82.209C22.5801 82.209 23.3451 81.8867 23.8594 81.2422C24.3802 80.5977 24.6406 79.6797 24.6406 78.4883C24.6406 77.4466 24.3509 76.597 23.7715 75.9395C23.1921 75.2819 22.401 74.9531 21.3984 74.9531C20.8451 74.9531 20.3633 75.0247 19.9531 75.168C19.543 75.3047 19.11 75.5749 18.6543 75.9785L17.7266 75.7148ZM30.7246 77.6777L29.3867 78.9668V83H28.2148V68H29.3867V77.5996L30.4902 76.4082L34.5332 72.4336H36.0078L31.5254 76.8867L36.3984 83H35.002L30.7246 77.6777Z" fill="#474747"/>
<path d="M11.2812 83H10.1094V70.1875L6.24219 71.623V70.5293L11.0859 68.7324H11.2812V83ZM17.7266 75.7148L18.4199 68.7812H25.5293V69.8652H19.4258L18.9277 74.6699C19.6895 74.1491 20.5814 73.8887 21.6035 73.8887C22.8861 73.8887 23.9082 74.3053 24.6699 75.1387C25.4316 75.972 25.8125 77.082 25.8125 78.4688C25.8125 79.9661 25.4414 81.1283 24.6992 81.9551C23.957 82.7819 22.9121 83.1953 21.5645 83.1953C20.3275 83.1953 19.3249 82.8503 18.5566 82.1602C17.7884 81.4701 17.349 80.5033 17.2383 79.2598H18.3613C18.472 80.2298 18.8008 80.9655 19.3477 81.4668C19.8945 81.9616 20.6335 82.209 21.5645 82.209C22.5801 82.209 23.3451 81.8867 23.8594 81.2422C24.3802 80.5977 24.6406 79.6797 24.6406 78.4883C24.6406 77.4466 24.3509 76.597 23.7715 75.9395C23.1921 75.2819 22.401 74.9531 21.3984 74.9531C20.8451 74.9531 20.3633 75.0247 19.9531 75.168C19.543 75.3047 19.11 75.5749 18.6543 75.9785L17.7266 75.7148ZM30.7246 77.6777L29.3867 78.9668V83H28.2148V68H29.3867V77.5996L30.4902 76.4082L34.5332 72.4336H36.0078L31.5254 76.8867L36.3984 83H35.002L30.7246 77.6777Z" fill="#474747"/>
<path d="M14.748 18H5.8418V17.1016L10.7148 11.5742C11.5221 10.6432 12.082 9.875 12.3945 9.26953C12.707 8.66406 12.8633 8.07487 12.8633 7.50195C12.8633 6.60352 12.5996 5.89388 12.0723 5.37305C11.5449 4.8457 10.819 4.58203 9.89453 4.58203C8.9375 4.58203 8.16276 4.88802 7.57031 5.5C6.98438 6.11198 6.69141 6.90625 6.69141 7.88281H5.5293C5.5293 7.08203 5.70833 6.35286 6.06641 5.69531C6.43099 5.03776 6.94531 4.52344 7.60938 4.15234C8.27995 3.77474 9.04167 3.58594 9.89453 3.58594C11.1966 3.58594 12.2122 3.92773 12.9414 4.61133C13.6771 5.29492 14.0449 6.22591 14.0449 7.4043C14.0449 8.06836 13.8366 8.79427 13.4199 9.58203C13.0098 10.3698 12.2839 11.3529 11.2422 12.5312L7.27734 17.0137H14.748V18ZM25.5098 12.0723C25.5098 14.0775 25.1419 15.6009 24.4062 16.6426C23.6706 17.6777 22.5866 18.1953 21.1543 18.1953C19.748 18.1953 18.6706 17.6875 17.9219 16.6719C17.1732 15.6497 16.7891 14.1654 16.7695 12.2188V9.66992C16.7695 7.67122 17.1406 6.15755 17.8828 5.12891C18.625 4.10026 19.709 3.58594 21.1348 3.58594C22.541 3.58594 23.6152 4.08398 24.3574 5.08008C25.0996 6.06966 25.4837 7.53125 25.5098 9.46484V12.0723ZM24.3379 9.52344C24.3379 7.89583 24.071 6.66536 23.5371 5.83203C23.0098 4.9987 22.209 4.58203 21.1348 4.58203C20.0801 4.58203 19.2858 4.98893 18.752 5.80273C18.2181 6.61654 17.9447 7.81771 17.9316 9.40625V12.1992C17.9316 13.8203 18.2051 15.0605 18.752 15.9199C19.3053 16.7793 20.1061 17.209 21.1543 17.209C22.196 17.209 22.9837 16.7891 23.5176 15.9492C24.0579 15.1094 24.3314 13.8789 24.3379 12.2578V9.52344ZM30.7246 12.6777L29.3867 13.9668V18H28.2148V3H29.3867V12.5996L30.4902 11.4082L34.5332 7.43359H36.0078L31.5254 11.8867L36.3984 18H35.002L30.7246 12.6777Z" fill="#474747"/>
<path d="M260.15 396H251.244V395.102L256.117 389.574C256.924 388.643 257.484 387.875 257.797 387.27C258.109 386.664 258.266 386.075 258.266 385.502C258.266 384.604 258.002 383.894 257.475 383.373C256.947 382.846 256.221 382.582 255.297 382.582C254.34 382.582 253.565 382.888 252.973 383.5C252.387 384.112 252.094 384.906 252.094 385.883H250.932C250.932 385.082 251.111 384.353 251.469 383.695C251.833 383.038 252.348 382.523 253.012 382.152C253.682 381.775 254.444 381.586 255.297 381.586C256.599 381.586 257.615 381.928 258.344 382.611C259.079 383.295 259.447 384.226 259.447 385.404C259.447 386.068 259.239 386.794 258.822 387.582C258.412 388.37 257.686 389.353 256.645 390.531L252.68 395.014H260.15V396ZM271.244 396H262.338V395.102L267.211 389.574C268.018 388.643 268.578 387.875 268.891 387.27C269.203 386.664 269.359 386.075 269.359 385.502C269.359 384.604 269.096 383.894 268.568 383.373C268.041 382.846 267.315 382.582 266.391 382.582C265.434 382.582 264.659 382.888 264.066 383.5C263.48 384.112 263.188 384.906 263.188 385.883H262.025C262.025 385.082 262.204 384.353 262.562 383.695C262.927 383.038 263.441 382.523 264.105 382.152C264.776 381.775 265.538 381.586 266.391 381.586C267.693 381.586 268.708 381.928 269.438 382.611C270.173 383.295 270.541 384.226 270.541 385.404C270.541 386.068 270.333 386.794 269.916 387.582C269.506 388.37 268.78 389.353 267.738 390.531L263.773 395.014H271.244V396Z" fill="#474747"/>
<path d="M346.15 396H337.244V395.102L342.117 389.574C342.924 388.643 343.484 387.875 343.797 387.27C344.109 386.664 344.266 386.075 344.266 385.502C344.266 384.604 344.002 383.894 343.475 383.373C342.947 382.846 342.221 382.582 341.297 382.582C340.34 382.582 339.565 382.888 338.973 383.5C338.387 384.112 338.094 384.906 338.094 385.883H336.932C336.932 385.082 337.111 384.353 337.469 383.695C337.833 383.038 338.348 382.523 339.012 382.152C339.682 381.775 340.444 381.586 341.297 381.586C342.599 381.586 343.615 381.928 344.344 382.611C345.079 383.295 345.447 384.226 345.447 385.404C345.447 386.068 345.239 386.794 344.822 387.582C344.412 388.37 343.686 389.353 342.645 390.531L338.68 395.014H346.15V396ZM350.936 388.256H352.146C352.817 388.256 353.403 388.139 353.904 387.904C354.406 387.663 354.786 387.338 355.047 386.928C355.314 386.511 355.447 386.033 355.447 385.492C355.447 384.581 355.19 383.868 354.676 383.354C354.161 382.839 353.423 382.582 352.459 382.582C351.548 382.582 350.799 382.852 350.213 383.393C349.633 383.926 349.344 384.633 349.344 385.512H348.172C348.172 384.776 348.357 384.105 348.729 383.5C349.1 382.888 349.614 382.416 350.271 382.084C350.929 381.752 351.658 381.586 352.459 381.586C353.748 381.586 354.764 381.938 355.506 382.641C356.248 383.344 356.619 384.307 356.619 385.531C356.619 386.215 356.401 386.846 355.965 387.426C355.535 387.999 354.943 388.428 354.188 388.715C355.073 388.962 355.743 389.389 356.199 389.994C356.655 390.593 356.883 391.309 356.883 392.143C356.883 393.36 356.486 394.34 355.691 395.082C354.897 395.824 353.836 396.195 352.508 396.195C351.661 396.195 350.883 396.026 350.174 395.688C349.471 395.349 348.924 394.877 348.533 394.271C348.149 393.66 347.957 392.95 347.957 392.143H349.129C349.129 393.048 349.445 393.786 350.076 394.359C350.708 394.926 351.518 395.209 352.508 395.209C353.517 395.209 354.301 394.952 354.861 394.438C355.428 393.917 355.711 393.165 355.711 392.182C355.711 391.231 355.405 390.505 354.793 390.004C354.188 389.503 353.292 389.252 352.107 389.252H350.936V388.256Z" fill="#474747"/>
<path d="M430.15 395H421.244V394.102L426.117 388.574C426.924 387.643 427.484 386.875 427.797 386.27C428.109 385.664 428.266 385.075 428.266 384.502C428.266 383.604 428.002 382.894 427.475 382.373C426.947 381.846 426.221 381.582 425.297 381.582C424.34 381.582 423.565 381.888 422.973 382.5C422.387 383.112 422.094 383.906 422.094 384.883H420.932C420.932 384.082 421.111 383.353 421.469 382.695C421.833 382.038 422.348 381.523 423.012 381.152C423.682 380.775 424.444 380.586 425.297 380.586C426.599 380.586 427.615 380.928 428.344 381.611C429.079 382.295 429.447 383.226 429.447 384.404C429.447 385.068 429.239 385.794 428.822 386.582C428.412 387.37 427.686 388.353 426.645 389.531L422.68 394.014H430.15V395ZM439.516 390.42H441.732V391.406H439.516V395H438.344V391.406H431.654V390.742L438.236 380.781H439.516V390.42ZM433.09 390.42H438.344V382.295L437.826 383.193L433.09 390.42Z" fill="#474747"/>
<rect opacity="0.7" width="621" height="1" transform="matrix(1 0 0 -1 41 12)" fill="#C4C4C4"/>
<rect opacity="0.7" x="41" y="75" width="621" height="1" fill="#C4C4C4"/>
<rect opacity="0.7" x="41" y="189" width="621" height="1" fill="#C4C4C4"/>
<rect opacity="0.7" x="41" y="273" width="621" height="1" fill="#C4C4C4"/>
<rect x="150" y="221" width="51" height="153" rx="10" fill="#920008"/>
<rect x="150" y="123" width="51" height="251" rx="10" fill="#920008"/>
<rect x="235" y="165" width="51" height="209" rx="10" fill="#920008"/>
<rect x="320" y="78" width="51" height="296" rx="10" fill="#920008"/>
<rect x="405" y="262" width="51" height="112" rx="10" fill="#920008"/>
<rect x="490" y="221" width="51" height="153" rx="10" fill="#920008"/>
<rect x="490" y="20" width="51" height="354" rx="10" fill="#920008"/>
<path d="M515.15 395H506.244V394.102L511.117 388.574C511.924 387.643 512.484 386.875 512.797 386.27C513.109 385.664 513.266 385.075 513.266 384.502C513.266 383.604 513.002 382.894 512.475 382.373C511.947 381.846 511.221 381.582 510.297 381.582C509.34 381.582 508.565 381.888 507.973 382.5C507.387 383.112 507.094 383.906 507.094 384.883H505.932C505.932 384.082 506.111 383.353 506.469 382.695C506.833 382.038 507.348 381.523 508.012 381.152C508.682 380.775 509.444 380.586 510.297 380.586C511.599 380.586 512.615 380.928 513.344 381.611C514.079 382.295 514.447 383.226 514.447 384.404C514.447 385.068 514.239 385.794 513.822 386.582C513.412 387.37 512.686 388.353 511.645 389.531L507.68 394.014H515.15V395ZM518.129 387.715L518.822 380.781H525.932V381.865H519.828L519.33 386.67C520.092 386.149 520.984 385.889 522.006 385.889C523.288 385.889 524.311 386.305 525.072 387.139C525.834 387.972 526.215 389.082 526.215 390.469C526.215 391.966 525.844 393.128 525.102 393.955C524.359 394.782 523.314 395.195 521.967 395.195C520.73 395.195 519.727 394.85 518.959 394.16C518.191 393.47 517.751 392.503 517.641 391.26H518.764C518.874 392.23 519.203 392.965 519.75 393.467C520.297 393.962 521.036 394.209 521.967 394.209C522.982 394.209 523.747 393.887 524.262 393.242C524.783 392.598 525.043 391.68 525.043 390.488C525.043 389.447 524.753 388.597 524.174 387.939C523.594 387.282 522.803 386.953 521.801 386.953C521.247 386.953 520.766 387.025 520.355 387.168C519.945 387.305 519.512 387.575 519.057 387.979L518.129 387.715Z" fill="#474747"/>
<path d="M515.15 395H506.244V394.102L511.117 388.574C511.924 387.643 512.484 386.875 512.797 386.27C513.109 385.664 513.266 385.075 513.266 384.502C513.266 383.604 513.002 382.894 512.475 382.373C511.947 381.846 511.221 381.582 510.297 381.582C509.34 381.582 508.565 381.888 507.973 382.5C507.387 383.112 507.094 383.906 507.094 384.883H505.932C505.932 384.082 506.111 383.353 506.469 382.695C506.833 382.038 507.348 381.523 508.012 381.152C508.682 380.775 509.444 380.586 510.297 380.586C511.599 380.586 512.615 380.928 513.344 381.611C514.079 382.295 514.447 383.226 514.447 384.404C514.447 385.068 514.239 385.794 513.822 386.582C513.412 387.37 512.686 388.353 511.645 389.531L507.68 394.014H515.15V395ZM518.129 387.715L518.822 380.781H525.932V381.865H519.828L519.33 386.67C520.092 386.149 520.984 385.889 522.006 385.889C523.288 385.889 524.311 386.305 525.072 387.139C525.834 387.972 526.215 389.082 526.215 390.469C526.215 391.966 525.844 393.128 525.102 393.955C524.359 394.782 523.314 395.195 521.967 395.195C520.73 395.195 519.727 394.85 518.959 394.16C518.191 393.47 517.751 392.503 517.641 391.26H518.764C518.874 392.23 519.203 392.965 519.75 393.467C520.297 393.962 521.036 394.209 521.967 394.209C522.982 394.209 523.747 393.887 524.262 393.242C524.783 392.598 525.043 391.68 525.043 390.488C525.043 389.447 524.753 388.597 524.174 387.939C523.594 387.282 522.803 386.953 521.801 386.953C521.247 386.953 520.766 387.025 520.355 387.168C519.945 387.305 519.512 387.575 519.057 387.979L518.129 387.715Z" fill="#474747"/>
<path d="M600.15 395H591.244V394.102L596.117 388.574C596.924 387.643 597.484 386.875 597.797 386.27C598.109 385.664 598.266 385.075 598.266 384.502C598.266 383.604 598.002 382.894 597.475 382.373C596.947 381.846 596.221 381.582 595.297 381.582C594.34 381.582 593.565 381.888 592.973 382.5C592.387 383.112 592.094 383.906 592.094 384.883H590.932C590.932 384.082 591.111 383.353 591.469 382.695C591.833 382.038 592.348 381.523 593.012 381.152C593.682 380.775 594.444 380.586 595.297 380.586C596.599 380.586 597.615 380.928 598.344 381.611C599.079 382.295 599.447 383.226 599.447 384.404C599.447 385.068 599.239 385.794 598.822 386.582C598.412 387.37 597.686 388.353 596.645 389.531L592.68 394.014H600.15V395ZM609.232 380.674V381.699H609.096C607.396 381.699 606.059 382.201 605.082 383.203C604.105 384.199 603.565 385.586 603.461 387.363C603.852 386.823 604.35 386.406 604.955 386.113C605.561 385.814 606.238 385.664 606.986 385.664C608.236 385.664 609.229 386.097 609.965 386.963C610.707 387.822 611.078 388.949 611.078 390.342C611.078 391.266 610.906 392.1 610.561 392.842C610.215 393.584 609.721 394.163 609.076 394.58C608.432 394.99 607.696 395.195 606.869 395.195C605.508 395.195 604.402 394.704 603.549 393.721C602.696 392.731 602.27 391.455 602.27 389.893V388.721C602.27 386.175 602.849 384.206 604.008 382.812C605.167 381.413 606.811 380.7 608.939 380.674H609.232ZM606.801 386.67C606.059 386.67 605.365 386.891 604.721 387.334C604.083 387.77 603.656 388.327 603.441 389.004V390C603.441 391.237 603.757 392.246 604.389 393.027C605.027 393.809 605.854 394.199 606.869 394.199C607.781 394.199 608.516 393.838 609.076 393.115C609.643 392.393 609.926 391.481 609.926 390.381C609.926 389.261 609.643 388.363 609.076 387.686C608.516 387.008 607.758 386.67 606.801 386.67Z" fill="#474747"/>
<rect x="575" y="123" width="51" height="251" rx="10" fill="#920008"/>
<rect x="65" y="221" width="51" height="153" rx="10" fill="#920008"/>
</svg>
