<svg width="32" height="32" viewBox="0 0 32 32" fill="none" xmlns="http://www.w3.org/2000/svg">
<path d="M16.6013 23.116L13.3333 26.6667H10.6667V29.3333H8V32H0V25.3333L9.15333 16.068C10.5933 19.3 13.28 21.8493 16.6013 23.116ZM32 10.6667C32 16.5573 27.224 21.3333 21.3333 21.3333C15.4427 21.3333 10.6667 16.5573 10.6667 10.6667C10.6667 4.776 15.4427 0 21.3333 0C27.224 0 32 4.776 32 10.6667ZM28 6.66667C28 5.19467 26.8053 4 25.3333 4C23.8613 4 22.6667 5.19467 22.6667 6.66667C22.6667 8.13867 23.8613 9.33333 25.3333 9.33333C26.8053 9.33333 28 8.13867 28 6.66667Z" fill="#FFDF00"/>
</svg>
